<?xml version="1.0" encoding="UTF-8" standalone="no"?>
<svg
   xmlns:dc="http://purl.org/dc/elements/1.1/"
   xmlns:cc="http://creativecommons.org/ns#"
   xmlns:rdf="http://www.w3.org/1999/02/22-rdf-syntax-ns#"
   xmlns:svg="http://www.w3.org/2000/svg"
   xmlns="http://www.w3.org/2000/svg"
   xmlns:xlink="http://www.w3.org/1999/xlink"
   xml:space="preserve"
   enable-background="new 1262.25 633.001 54.167 55"
   viewBox="1262.25 633.001 65.916237 53.544998"
   height="53.544998"
   width="65.916237"
   y="0px"
   x="0px"
   id="svg1901"
   version="1.1"><metadata
     id="metadata43"><rdf:RDF><cc:Work
         rdf:about=""><dc:format>image/svg+xml</dc:format><dc:type
           rdf:resource="http://purl.org/dc/dcmitype/StillImage" /><dc:title></dc:title></cc:Work></rdf:RDF></metadata><defs
     id="defs5"><linearGradient
       xlink:href="#path5777_1_"
       id="rect5781_1_"
       gradientUnits="userSpaceOnUse"
       x1="-556.36542"
       y1="-637.35059"
       x2="-479.81339"
       y2="-637.35059"
       gradientTransform="matrix(0.26859357,0,0,-0.208,1318.0588,448.3741)"><stop
         offset="0"
         style="stop-color:#e4ffff;stop-opacity:1"
         id="stop4185" /><stop
         offset="1"
         style="stop-color:#8fbcbc;stop-opacity:1"
         id="stop4187" /></linearGradient></defs><g
     transform="translate(115.05602,73.586976)"
     id="layer2"><path
       style="fill:#656565"
       d="m 1153.6767,560.164 50.4227,0 c 3.1644,0 5.7327,1.796 5.7327,4.012 l 0,44.021 c 0,2.216 -2.5683,4.012 -5.7327,4.012 l -50.4227,0 c -3.1644,0 -5.7327,-1.796 -5.7327,-4.012 l 0,-44.021 c 0,-2.217 2.5683,-4.012 5.7327,-4.012 z"
       id="rect5767" /><rect
       style="fill:#d6d6d6"
       height="34.563"
       width="11.279"
       y="564.02802"
       x="1201.0571"
       id="rect5769" /><linearGradient
       gradientTransform="matrix(0.2087,0,0,-0.208,1267.8253,481.1358)"
       y2="-385.7207"
       x2="-301.45831"
       y1="-398.34769"
       x1="-298.42789"
       gradientUnits="userSpaceOnUse"
       id="path5771_1_"><stop
         id="stop12"
         style="stop-color:#D6D6D6"
         offset="0" /><stop
         id="stop14"
         style="stop-color:#656565"
         offset="1" /></linearGradient><path
       style="fill:url(#path5771_1_)"
       d="m 1203.2172,567.043 9.094,-2.972 c -0.361,-2.857 -2.33,-3.846 -5.068,-3.938 -3.646,0.105 -7.203,0.261 -9.094,1.337 l 5.068,5.573 z"
       id="path5771" /><rect
       style="fill:#929292"
       height="12.975"
       width="46.811523"
       y="599.22198"
       x="1157.038"
       id="rect5773" /><linearGradient
       gradientTransform="matrix(-0.2087,0,0,-0.208,1550.7189,481.1358)"
       y2="-599.16351"
       x2="1663.8613"
       y1="-583.50488"
       x1="1643.8143"
       gradientUnits="userSpaceOnUse"
       id="path5775_1_"><stop
         id="stop19"
         style="stop-color:#D6D6D6"
         offset="0" /><stop
         id="stop21"
         style="stop-color:#939393"
         offset="1" /></linearGradient><path
       style="fill:url(#path5775_1_)"
       d="m 1201.5182,596.175 10.805,1.156 0.039,10.505 c -0.01,2.71 -2.166,4.267 -4.4,4.36 l -4.811,-0.053 -5.322,-12.344 3.689,-3.624 z"
       id="path5775" /><linearGradient
       gradientTransform="matrix(0.2087,0,0,-0.208,1254.9041,481.1358)"
       y2="-599.65588"
       x2="-475.05191"
       y1="-583.99811"
       x1="-497.9552"
       gradientUnits="userSpaceOnUse"
       id="path5777_1_"><stop
         id="stop25"
         style="stop-color:#656565"
         offset="0" /><stop
         id="stop27"
         style="stop-color:#939393"
         offset="1" /></linearGradient><path
       style="fill:url(#path5777_1_)"
       d="m 1155.456,596.071 -7.484,1.261 -0.039,10.505 c 0.01,2.71 2.166,4.267 4.4,4.36 l 4.811,-0.053 1.686,-12.292 -3.374,-3.781 z"
       id="path5777" /><path
       style="fill:#f1f1f1"
       d="m 1160.7964,560.821 34.4135,0 c 3.3593,0 6.0811,2.129 6.0811,4.755 l 0,30.736 c 0,2.626 -2.7218,4.754 -6.0811,4.754 l -34.4135,0 c -3.3593,0 -6.0824,-2.128 -6.0824,-4.754 l 0,-30.736 c 0,-2.626 2.7231,-4.755 6.0824,-4.755 z"
       id="rect5779" /><linearGradient
       gradientTransform="matrix(0.26859357,0,0,-0.208,1318.0588,448.3741)"
       y2="-637.35059"
       x2="-479.81339"
       y1="-637.35059"
       x1="-556.36542"
       gradientUnits="userSpaceOnUse"
       id="linearGradient4189"><stop
         id="stop32"
         style="stop-color:#D8D8D8"
         offset="0" /><stop
         id="stop34"
         style="stop-color:#B1B1B1"
         offset="1" /></linearGradient><path
       id="rect5781"
       d="m 1160.854,560.82052 c -3.391,0 -6.1403,2.12986 -6.1403,4.75586 l 0,30.73633 c 0,2.626 2.7493,4.7539 6.1403,4.7539 l 33.3823,0 c 3.3898,0 6.1403,-2.1279 6.1403,-4.7539 l 0,-30.73633 c 0,-2.626 -2.749,-4.75586 -6.1403,-4.75586 l -33.3823,0 z"
       style="fill:url(#rect5781_1_);fill-opacity:1.0" /><path
       style="fill:none;stroke:#000000;stroke-width:1.67263806"
       d="m 1153.9812,560.25032 52.3418,0 c 3.2848,0 5.9509,1.79004 5.9509,3.99869 l 0,43.87498 c 0,2.20865 -2.6661,3.99869 -5.9509,3.99869 l -52.3418,0 c -3.2848,0 -5.9509,-1.79004 -5.9509,-3.99869 l 0,-43.87498 c 0,-2.20965 2.6661,-3.99869 5.9509,-3.99869 z"
       id="rect5791" /><text
       style="font-style:normal;font-variant:normal;font-weight:normal;font-stretch:normal;font-size:13.97626019px;line-height:125%;font-family:DejaVuSansCondensed;-inkscape-font-specification:'DejaVuSansCondensed, Normal';text-align:start;writing-mode:lr-tb;text-anchor:start"
       id="text41"
       font-size="13.9762"
       transform="matrix(1.0034,0,0,1,1158.746,574.8686)"><tspan
         y="0"
         x="0"
         id="tspan4177">Clone</tspan><tspan
         y="17.470325"
         x="0"
         id="tspan4179">Tab</tspan></text>
</g></svg>